<svg width="223" height="169" viewBox="0 0 223 169" fill="none" xmlns="http://www.w3.org/2000/svg">
<g clip-path="url(#clip0_86_951)">
<path d="M167.507 93.1766C173.054 89.0979 182.161 92.1112 182.161 101.925C184.827 96.4179 196.481 97.7512 195.881 106.978C199.494 104.591 204.481 106.751 204.321 111.858C209.214 109.231 218.201 114.631 216.242 122.603C213.587 121.738 210.454 122.191 207.881 124.311C206.321 118.245 199.921 116.365 194.321 116.751C189.962 117.057 186.268 120.351 184.868 123.805C182.428 122.27 179.214 121.937 175.654 122.751C169.547 124.138 165.987 127.925 165.214 133.191C162.481 128.085 154.987 130.245 154.094 134.978C152.161 128.085 145.321 126.085 140.654 126.591C136.641 127.018 131.494 129.258 129.974 135.138C126.654 131.95 121.281 129.603 115.427 130.085C111.027 130.445 106.948 132.711 104.454 136.057C103.788 130.177 92.4008 127.965 88.1355 133.485C86.0808 131.085 82.6141 129.231 78.8275 128.911C75.0408 128.603 69.9742 129.578 67.0542 133.031C66.2275 127.551 58.7075 124.177 53.4808 126.177C51.8408 119.937 39.4408 115.418 33.6542 125.645C32.9875 119.418 28.0942 116.978 23.6542 116.978C16.9742 116.978 13.4275 122.085 13.2141 125.191C11.6141 124.298 9.82751 124.085 8.12084 124.418C5.96217 116.538 15.2541 110.497 20.5475 114.085C19.2141 106.085 28.9875 102.751 33.4941 108.085C31.6675 100.925 39.1355 95.8712 44.9342 98.0046C46.9622 90.6032 59.3608 86.2699 65.6542 94.5246C66.5475 89.1912 71.7475 85.6979 78.1608 86.5912C81.1475 87.0046 83.4942 88.4965 85.0008 90.3645C87.2142 84.3379 96.5755 83.0712 99.6542 88.4178C101.588 77.6578 119.948 72.7232 127.321 84.1112C129.774 82.8712 132.841 82.5098 136.321 83.4178C141.881 84.8712 144.827 89.5779 145.214 93.1912C148.601 83.4179 164.454 85.1912 167.494 93.1766H167.507Z" fill="#D87639"/>
<path d="M33.6541 125.645C39.4407 115.418 51.8407 119.937 53.4807 126.177C58.7074 124.177 66.2274 127.551 67.0541 133.031C69.9741 129.578 75.0407 128.603 78.8274 128.911C82.614 129.231 86.0807 131.085 88.1354 133.485C92.4007 127.965 103.787 130.177 104.454 136.057C106.947 132.711 111.027 130.445 115.427 130.085C121.281 129.603 126.654 131.95 129.974 135.138C131.494 129.258 136.641 127.018 140.654 126.591C145.321 126.085 152.161 128.085 154.094 134.978C154.987 130.245 162.481 128.085 165.214 133.191C165.987 127.925 169.547 124.138 175.654 122.751C179.214 121.937 182.427 122.27 184.867 123.805C186.202 120.513 189.631 117.395 193.725 116.843C190.35 113.578 184.037 114.049 182.161 117.925C182.161 108.111 173.054 105.098 167.507 109.177H167.494C164.454 101.191 148.601 99.4179 145.214 109.191C144.827 105.578 141.881 100.871 136.321 99.4178C132.841 98.5098 129.774 98.8712 127.321 100.111C119.947 88.7232 101.587 93.6578 99.6541 104.418C96.5754 99.0712 87.2141 100.338 85.0008 106.365C83.4941 104.497 81.1474 103.005 78.1607 102.591C71.7474 101.698 66.5474 105.191 65.6541 110.525C59.3607 102.27 46.9621 106.603 44.9341 114.005C39.1354 111.871 31.6674 116.925 33.4941 124.085L33.3261 123.917C33.4701 124.461 33.5874 125.029 33.6541 125.645Z" fill="#B74F2F"/>
<path d="M192.541 127.195C192.541 138.423 158.962 147.529 117.541 147.529C76.1205 147.529 42.5405 138.423 42.5405 127.195C42.5405 115.967 76.1205 106.862 117.541 106.862C158.962 106.862 192.541 115.967 192.541 127.195Z" fill="#612D26"/>
<path d="M216.242 122.603C219.721 123.723 222.414 127.085 222.094 131.858C221.601 139.405 216.641 141.658 211.534 140.925C211.534 142.283 211.227 143.738 210.547 145.191C208.189 150.298 199.881 152.311 191.881 148.751C189.909 159.351 175.881 159.937 170.427 156.51C167.681 162.738 158.575 164.525 153.707 160.565C151.614 166.765 140.414 168.005 136.481 161.751C132.827 167.085 126.601 169.751 116.481 168.751C110.909 168.191 107.481 166.338 105.454 164.045C96.7608 172.325 82.1074 166.911 79.8141 159.751C77.4941 162.911 72.1608 164.911 65.6541 163.751C62.0141 163.098 58.3475 160.631 56.6941 157.045C51.3875 163.418 38.4275 160.177 37.4941 152.418C31.2675 154.698 19.8141 154.085 16.1608 148.591C14.8808 146.671 14.1475 144.805 13.8408 143.045C5.78747 143.658 0.614146 140.071 0.320813 134.085C0.0808129 129.231 3.89415 125.205 8.12081 124.418C9.82748 124.085 11.6141 124.298 13.2141 125.191C13.4274 122.085 16.9741 116.978 23.6541 116.978C28.0941 116.978 32.9875 119.418 33.6541 125.645C39.4408 115.418 51.8408 119.937 53.4808 126.177C58.7074 124.177 66.2275 127.551 67.0541 133.031C69.9741 129.578 75.0408 128.603 78.8274 128.911C82.6141 129.231 86.0808 131.085 88.1355 133.485C92.4008 127.965 103.787 130.177 104.454 136.057C106.947 132.711 111.027 130.445 115.427 130.085C121.281 129.603 126.654 131.95 129.974 135.138C131.494 129.258 136.641 127.018 140.654 126.591C145.321 126.085 152.161 128.085 154.094 134.978C154.987 130.245 162.481 128.085 165.214 133.191C165.987 127.925 169.547 124.138 175.654 122.751C179.214 121.937 182.427 122.27 184.867 123.805C186.267 120.351 189.962 117.057 194.321 116.751C199.921 116.365 206.321 118.245 207.881 124.311C210.454 122.191 213.587 121.738 216.242 122.603Z" fill="#E88D3A"/>
<path d="M216.859 122.862C216.289 129.833 211.629 131.926 206.823 131.237C206.823 132.533 206.531 133.918 205.885 135.302C203.635 140.169 195.718 142.089 188.094 138.695C186.213 148.798 172.845 149.357 167.647 146.091C165.029 152.026 156.353 153.729 151.713 149.953C149.717 155.862 139.045 157.045 135.295 151.085C131.811 156.167 125.878 158.71 116.234 157.757C110.922 157.222 107.655 155.455 105.725 153.27C97.4393 161.161 83.4727 156.002 81.2887 149.179C79.078 152.19 73.994 154.097 67.794 152.99C64.3233 152.369 60.8287 150.018 59.254 146.599C54.1954 152.673 41.846 149.586 40.9553 142.19C35.0207 144.362 24.1047 143.778 20.6234 138.542C19.4034 136.713 18.7033 134.934 18.4127 133.258C11.0073 133.821 6.17136 130.654 5.58736 125.306C2.49402 126.911 0.131355 130.234 0.320688 134.085C0.614022 140.071 5.78734 143.658 13.8407 143.045C14.1473 144.805 14.8807 146.671 16.1607 148.591C19.814 154.085 31.2673 154.698 37.494 152.418C38.4273 160.177 51.3873 163.418 56.694 157.045C58.3473 160.631 62.014 163.098 65.654 163.751C72.1607 164.911 77.494 162.911 79.814 159.751C82.1073 166.911 96.7607 172.325 105.454 164.045C107.481 166.338 110.909 168.191 116.481 168.751C126.601 169.751 132.827 167.085 136.481 161.751C140.414 168.005 151.614 166.765 153.707 160.565C158.575 164.525 167.681 162.738 170.427 156.51C175.881 159.937 189.909 159.351 191.881 148.751C199.881 152.311 208.189 150.298 210.547 145.191C211.227 143.738 211.534 142.283 211.534 140.925C216.641 141.658 221.601 139.405 222.094 131.858C222.395 127.378 220.029 124.166 216.859 122.862Z" fill="#D87639"/>
<path d="M30.1138 127.154L30.1378 127.171L30.1938 127.211L30.1138 127.154Z" fill="#F1AC56"/>
<path d="M30.6379 127.558C30.4713 127.43 30.3033 127.301 30.1379 127.171C29.5993 126.69 28.9579 126.371 28.2832 126.241C28.5326 125.609 28.6633 124.867 28.5819 124.195C28.3806 122.51 27.7672 121.403 26.3832 120.393C25.3019 119.603 23.8126 119.69 22.5766 119.885C21.4939 120.057 20.4592 120.846 19.6859 121.567C17.8632 123.266 16.7899 126.171 18.1446 128.466C19.2326 130.305 21.6126 131.015 23.6526 130.579C23.5979 131.17 23.6633 131.767 23.9019 132.343C24.2486 133.179 24.3753 133.402 24.9539 134.119C25.4979 134.794 26.5019 135.065 27.3206 135.099C27.5859 135.11 28.242 135.29 27.406 135.07C28.93 135.471 30.4712 134.818 31.2939 133.489C31.8553 132.581 31.8379 131.574 31.8739 130.557C31.9006 129.813 31.7046 128.999 31.3019 128.37C31.1353 128.049 30.9126 127.778 30.6379 127.558Z" fill="#F1AC56"/>
<path d="M55.4915 135.359L55.2301 135.166C54.8781 134.742 54.4475 134.393 53.9501 134.154C53.5248 132.841 52.6529 131.701 51.3702 130.898C50.5542 130.387 49.4408 130.117 48.4248 130.211C48.4488 129.959 48.4688 129.706 48.4515 129.462C48.3502 128.026 47.8448 126.87 46.8915 125.794C45.3181 124.019 42.2555 124.119 40.6648 125.763C39.4942 126.971 39.3581 128.598 39.9581 129.923C39.6821 131.091 40.1075 132.374 40.9102 133.258C41.5995 134.021 42.8448 134.373 43.8581 134.306C43.3408 135.515 43.2368 136.93 43.5861 138.147C44.2781 140.545 46.4662 141.525 48.6795 141.401C49.4875 141.535 50.3235 141.545 51.1982 141.523L51.3262 141.578H51.3342C52.7275 142.151 54.2808 142.021 55.4915 140.81C56.8568 139.445 57.1328 136.677 55.4915 135.359Z" fill="#F1AC56"/>
<path d="M75.0514 133.985C73.7447 134.285 72.4274 134.905 71.362 135.783C71.038 135.575 70.686 135.401 70.29 135.239C71.866 135.882 70.9153 135.463 70.53 135.27C69.5313 134.77 68.8486 134.622 67.7473 134.506C66.902 134.418 65.8447 134.73 65.1314 135.171C64.282 135.698 63.3273 136.665 63.178 137.685C63.0153 138.791 63.014 138.965 63.1793 140.069C63.3727 141.373 64.722 142.479 65.9167 142.807C66.294 142.911 66.6954 142.947 67.098 142.93L67.246 142.985C68.1127 143.211 68.9127 143.107 69.7034 142.857C69.974 143.393 70.3073 143.895 70.722 144.333C71.2247 145.522 72.2074 146.534 73.6727 147.019C76.298 147.889 79.6353 147.419 81.8327 145.781C85.1473 143.313 86.358 139.022 83.4153 135.723C81.458 133.53 77.706 133.375 75.0514 133.985Z" fill="#F1AC56"/>
<path d="M58.9887 129.494C57.4567 129.494 56.1768 130.773 56.1768 132.308C56.1768 133.841 57.4567 135.12 58.9887 135.12C60.5221 135.12 61.8021 133.841 61.8021 132.308C61.8021 130.773 60.5221 129.494 58.9887 129.494Z" fill="#F1AC56"/>
<path d="M131.877 143.533C130.486 143.533 129.325 144.693 129.325 146.085C129.325 147.477 130.486 148.637 131.877 148.637C133.267 148.637 134.429 147.477 134.429 146.085C134.429 144.693 133.267 143.533 131.877 143.533Z" fill="#F1AC56"/>
<path d="M33.8471 135.559L33.7484 135.633C32.6898 135.929 32.0071 137.342 32.9791 138.315C33.9551 139.291 35.3765 138.602 35.6671 137.539L35.7351 137.447C36.5431 136.354 34.9391 134.749 33.8471 135.559Z" fill="#F1AC56"/>
<path d="M99.7738 139.458C98.7458 139.002 97.9644 138.747 96.8084 138.721C95.7658 138.698 94.6991 139.125 93.7991 139.591C91.3444 140.862 90.1031 144.247 91.6391 146.655C92.1085 147.39 92.7431 147.969 93.4858 148.341C94.0764 148.974 94.8378 149.445 95.6791 149.625C96.9045 149.885 97.9698 149.674 99.0871 149.122L99.2751 149.001C100.134 148.33 100.238 148.255 99.5871 148.773C99.9725 148.534 100.328 148.234 100.664 147.929C101.86 146.835 102.471 145.599 102.626 143.975C102.799 142.158 101.378 140.169 99.7738 139.458Z" fill="#F1AC56"/>
<path d="M126.282 139.01C124.582 137.252 122.198 136.432 119.821 136.183C116.821 135.872 114.359 136.726 112.579 139.25C112.366 139.551 112.189 139.86 112.029 140.174C110.713 139.576 109.142 139.488 107.713 139.736C107.399 139.791 107.103 139.891 106.822 140.02C104.866 140.708 103.541 142.866 103.778 144.922C104.038 147.178 105.411 149.075 107.723 149.588C109.709 150.028 111.613 149.52 113.165 148.236L113.197 148.203C114.201 149.31 115.555 150.143 117.162 150.499C117.57 150.591 117.974 150.636 118.379 150.66C119.265 150.824 120.171 150.78 121.011 150.526C121.145 150.536 121.274 150.55 121.41 150.556C127.085 150.796 130.079 142.935 126.282 139.01Z" fill="#F1AC56"/>
<path d="M147.843 135.182C147.815 134.973 147.777 134.765 147.71 134.559C147.353 133.477 146.287 132.389 145.034 132.523C143.671 132.669 142.489 133.167 141.754 134.411C141.355 135.089 141.263 135.818 141.362 136.51C139.135 136.642 137.291 138.339 137.221 140.622C137.162 140.813 137.111 141.002 137.075 141.19C136.742 142.878 137.53 144.961 139.426 145.33C140.649 145.57 141.731 145.671 142.958 145.437C145.217 145.007 146.579 142.941 146.666 140.751C146.69 140.166 146.547 139.606 146.305 139.091C147.325 138.485 148.001 137.335 147.935 136.169L147.946 136.089C147.935 135.709 147.814 134.867 147.843 135.182Z" fill="#F1AC56"/>
<path d="M189.321 129.101C188.45 129.101 187.645 129.401 186.983 129.889L186.883 129.634C186.754 129.359 186.447 128.502 186.837 129.677C186.647 129.106 186.367 128.461 186.023 127.946C184.415 125.542 181.91 124.546 179.079 124.974C180.726 124.726 178.843 124.937 178.293 125.122C177.455 125.401 176.699 125.794 176.069 126.425C174.862 127.63 174.322 129.509 174.77 131.163L174.711 131.511C174.069 131.477 173.377 131.546 172.897 131.721C171.741 132.142 171.013 132.755 170.285 133.627C169.87 133.494 169.441 133.402 168.987 133.402C166.881 133.402 165.093 134.966 164.719 136.977C164.302 136.594 163.834 136.265 163.391 136.026C161.989 135.271 160.438 135.037 158.889 135.431C157.199 135.861 155.789 137.589 155.857 139.366L155.802 139.433C155.215 140.261 155.254 141.422 155.459 142.354C155.686 143.393 156.573 144.307 157.449 144.859C158.465 145.501 159.802 145.747 160.986 145.627C162.354 145.491 163.997 145.145 164.957 144.051C165.547 143.378 166.026 142.706 166.239 141.817C166.294 141.586 166.311 141.37 166.331 141.153C167.073 141.735 167.989 142.101 168.987 142.101C169.667 142.101 170.305 141.923 170.883 141.635C171.114 141.802 171.358 141.945 171.617 142.065C172.03 142.751 172.818 143.469 173.635 143.601C174.809 143.794 175.771 144.005 176.973 143.765C178.742 143.411 179.858 141.698 180.438 140.13C180.659 139.533 180.731 138.937 180.695 138.362C181.53 138.359 182.355 138.255 183.051 138.099C184.337 137.811 185.583 136.919 186.43 135.79C187.162 136.57 188.189 137.069 189.321 137.069C191.493 137.069 193.305 135.257 193.305 133.085C193.305 130.913 191.493 129.101 189.321 129.101Z" fill="#F1AC56"/>
<path d="M216.242 122.603C219.721 123.723 222.414 127.085 222.094 131.858C221.601 139.405 216.641 141.658 211.534 140.925C211.534 142.283 211.227 143.738 210.547 145.191C208.189 150.298 199.881 152.311 191.881 148.751C189.909 159.351 175.881 159.937 170.427 156.51C167.681 162.738 158.575 164.525 153.707 160.565C151.614 166.765 140.414 168.005 136.481 161.751C132.827 167.085 126.601 169.751 116.481 168.751C110.909 168.191 107.481 166.338 105.454 164.045C96.7608 172.325 82.1074 166.911 79.8141 159.751C77.4941 162.911 72.1608 164.911 65.6541 163.751C62.0141 163.098 58.3475 160.631 56.6941 157.045C51.3875 163.418 38.4275 160.177 37.4941 152.418C31.2675 154.698 19.8141 154.085 16.1608 148.591C14.8808 146.671 14.1475 144.805 13.8408 143.045C5.78747 143.658 0.614146 140.071 0.320813 134.085C0.0808129 129.231 3.89415 125.205 8.12081 124.418C9.82748 124.085 11.6141 124.298 13.2141 125.191C13.4274 122.085 16.9741 116.978 23.6541 116.978C28.0941 116.978 32.9875 119.418 33.6541 125.645C39.4408 115.418 51.8408 119.937 53.4808 126.177C58.7074 124.177 66.2275 127.551 67.0541 133.031C69.9741 129.578 75.0408 128.603 78.8274 128.911C82.6141 129.231 86.0808 131.085 88.1355 133.485C92.4008 127.965 103.787 130.177 104.454 136.057C106.947 132.711 111.027 130.445 115.427 130.085C121.281 129.603 126.654 131.95 129.974 135.138C131.494 129.258 136.641 127.018 140.654 126.591C145.321 126.085 152.161 128.085 154.094 134.978C154.987 130.245 162.481 128.085 165.214 133.191C165.987 127.925 169.547 124.138 175.654 122.751C179.214 121.937 182.427 122.27 184.867 123.805C186.267 120.351 189.962 117.057 194.321 116.751C199.921 116.365 206.321 118.245 207.881 124.311C210.454 122.191 213.587 121.738 216.242 122.603Z" fill="#E88D3A"/>
<path d="M216.859 122.862C216.289 129.833 211.629 131.926 206.823 131.237C206.823 132.533 206.531 133.918 205.885 135.302C203.635 140.169 195.718 142.089 188.094 138.695C186.213 148.798 172.845 149.357 167.647 146.091C165.029 152.026 156.353 153.729 151.713 149.953C149.717 155.862 139.045 157.045 135.295 151.085C131.811 156.167 125.878 158.71 116.234 157.757C110.922 157.222 107.655 155.455 105.725 153.27C97.4393 161.161 83.4727 156.002 81.2887 149.179C79.078 152.19 73.994 154.097 67.794 152.99C64.3233 152.369 60.8287 150.018 59.254 146.599C54.1954 152.673 41.846 149.586 40.9553 142.19C35.0207 144.362 24.1047 143.778 20.6234 138.542C19.4034 136.713 18.7033 134.934 18.4127 133.258C11.0073 133.821 6.17136 130.654 5.58736 125.306C2.49402 126.911 0.131355 130.234 0.320688 134.085C0.614022 140.071 5.78734 143.658 13.8407 143.045C14.1473 144.805 14.8807 146.671 16.1607 148.591C19.814 154.085 31.2673 154.698 37.494 152.418C38.4273 160.177 51.3873 163.418 56.694 157.045C58.3473 160.631 62.014 163.098 65.654 163.751C72.1607 164.911 77.494 162.911 79.814 159.751C82.1073 166.911 96.7607 172.325 105.454 164.045C107.481 166.338 110.909 168.191 116.481 168.751C126.601 169.751 132.827 167.085 136.481 161.751C140.414 168.005 151.614 166.765 153.707 160.565C158.575 164.525 167.681 162.738 170.427 156.51C175.881 159.937 189.909 159.351 191.881 148.751C199.881 152.311 208.189 150.298 210.547 145.191C211.227 143.738 211.534 142.283 211.534 140.925C216.641 141.658 221.601 139.405 222.094 131.858C222.395 127.378 220.029 124.166 216.859 122.862Z" fill="#D87639"/>
<path d="M30.1138 127.154L30.1378 127.171L30.1938 127.211L30.1138 127.154Z" fill="#F1AC56"/>
<path d="M30.6379 127.558C30.4713 127.43 30.3033 127.301 30.1379 127.171C29.5993 126.69 28.9579 126.371 28.2832 126.241C28.5326 125.609 28.6633 124.867 28.5819 124.195C28.3806 122.51 27.7672 121.403 26.3832 120.393C25.3019 119.603 23.8126 119.69 22.5766 119.885C21.4939 120.057 20.4592 120.846 19.6859 121.567C17.8632 123.266 16.7899 126.171 18.1446 128.466C19.2326 130.305 21.6126 131.015 23.6526 130.579C23.5979 131.17 23.6633 131.767 23.9019 132.343C24.2486 133.179 24.3753 133.402 24.9539 134.119C25.4979 134.794 26.5019 135.065 27.3206 135.099C27.5859 135.11 28.242 135.29 27.406 135.07C28.93 135.471 30.4712 134.818 31.2939 133.489C31.8553 132.581 31.8379 131.574 31.8739 130.557C31.9006 129.813 31.7046 128.999 31.3019 128.37C31.1353 128.049 30.9126 127.778 30.6379 127.558Z" fill="#F1AC56"/>
<path d="M55.4915 135.359L55.2301 135.166C54.8781 134.742 54.4475 134.393 53.9501 134.154C53.5248 132.841 52.6529 131.701 51.3702 130.898C50.5542 130.387 49.4408 130.117 48.4248 130.211C48.4488 129.959 48.4688 129.706 48.4515 129.462C48.3502 128.026 47.8448 126.87 46.8915 125.794C45.3181 124.019 42.2555 124.119 40.6648 125.763C39.4942 126.971 39.3581 128.598 39.9581 129.923C39.6821 131.091 40.1075 132.374 40.9102 133.258C41.5995 134.021 42.8448 134.373 43.8581 134.306C43.3408 135.515 43.2368 136.93 43.5861 138.147C44.2781 140.545 46.4662 141.525 48.6795 141.401C49.4875 141.535 50.3235 141.545 51.1982 141.523L51.3262 141.578H51.3342C52.7275 142.151 54.2808 142.021 55.4915 140.81C56.8568 139.445 57.1328 136.677 55.4915 135.359Z" fill="#F1AC56"/>
<path d="M75.0514 133.985C73.7447 134.285 72.4274 134.905 71.362 135.783C71.038 135.575 70.686 135.401 70.29 135.239C71.866 135.882 70.9153 135.463 70.53 135.27C69.5313 134.77 68.8486 134.622 67.7473 134.506C66.902 134.418 65.8447 134.73 65.1314 135.171C64.282 135.698 63.3273 136.665 63.178 137.685C63.0153 138.791 63.014 138.965 63.1793 140.069C63.3727 141.373 64.722 142.479 65.9167 142.807C66.294 142.911 66.6954 142.947 67.098 142.93L67.246 142.985C68.1127 143.211 68.9127 143.107 69.7034 142.857C69.974 143.393 70.3073 143.895 70.722 144.333C71.2247 145.522 72.2074 146.534 73.6727 147.019C76.298 147.889 79.6353 147.419 81.8327 145.781C85.1473 143.313 86.358 139.022 83.4153 135.723C81.458 133.53 77.706 133.375 75.0514 133.985Z" fill="#F1AC56"/>
<path d="M58.9887 129.494C57.4567 129.494 56.1768 130.773 56.1768 132.308C56.1768 133.841 57.4567 135.12 58.9887 135.12C60.5221 135.12 61.8021 133.841 61.8021 132.308C61.8021 130.773 60.5221 129.494 58.9887 129.494Z" fill="#F1AC56"/>
<path d="M131.877 143.533C130.486 143.533 129.325 144.693 129.325 146.085C129.325 147.477 130.486 148.637 131.877 148.637C133.267 148.637 134.429 147.477 134.429 146.085C134.429 144.693 133.267 143.533 131.877 143.533Z" fill="#F1AC56"/>
<path d="M33.8471 135.559L33.7484 135.633C32.6898 135.929 32.0071 137.342 32.9791 138.315C33.9551 139.291 35.3765 138.602 35.6671 137.539L35.7351 137.447C36.5431 136.354 34.9391 134.749 33.8471 135.559Z" fill="#F1AC56"/>
<path d="M99.7738 139.458C98.7458 139.002 97.9644 138.747 96.8084 138.721C95.7658 138.698 94.6991 139.125 93.7991 139.591C91.3444 140.862 90.1031 144.247 91.6391 146.655C92.1085 147.39 92.7431 147.969 93.4858 148.341C94.0764 148.974 94.8378 149.445 95.6791 149.625C96.9045 149.885 97.9698 149.674 99.0871 149.122L99.2751 149.001C100.134 148.33 100.238 148.255 99.5871 148.773C99.9725 148.534 100.328 148.234 100.664 147.929C101.86 146.835 102.471 145.599 102.626 143.975C102.799 142.158 101.378 140.169 99.7738 139.458Z" fill="#F1AC56"/>
<path d="M126.282 139.01C124.582 137.252 122.198 136.432 119.821 136.183C116.821 135.872 114.359 136.726 112.579 139.25C112.366 139.551 112.189 139.86 112.029 140.174C110.713 139.576 109.142 139.488 107.713 139.736C107.399 139.791 107.103 139.891 106.822 140.02C104.866 140.708 103.541 142.866 103.778 144.922C104.038 147.178 105.411 149.075 107.723 149.588C109.709 150.028 111.613 149.52 113.165 148.236L113.197 148.203C114.201 149.31 115.555 150.143 117.162 150.499C117.57 150.591 117.974 150.636 118.379 150.66C119.265 150.824 120.171 150.78 121.011 150.526C121.145 150.536 121.274 150.55 121.41 150.556C127.085 150.796 130.079 142.935 126.282 139.01Z" fill="#F1AC56"/>
<path d="M147.843 135.182C147.815 134.973 147.777 134.765 147.71 134.559C147.353 133.477 146.287 132.389 145.034 132.523C143.671 132.669 142.489 133.167 141.754 134.411C141.355 135.089 141.263 135.818 141.362 136.51C139.135 136.642 137.291 138.339 137.221 140.622C137.162 140.813 137.111 141.002 137.075 141.19C136.742 142.878 137.53 144.961 139.426 145.33C140.649 145.57 141.731 145.671 142.958 145.437C145.217 145.007 146.579 142.941 146.666 140.751C146.69 140.166 146.547 139.606 146.305 139.091C147.325 138.485 148.001 137.335 147.935 136.169L147.946 136.089C147.935 135.709 147.814 134.867 147.843 135.182Z" fill="#F1AC56"/>
<path d="M189.321 129.101C188.45 129.101 187.645 129.401 186.983 129.889L186.883 129.634C186.754 129.359 186.447 128.502 186.837 129.677C186.647 129.106 186.367 128.461 186.023 127.946C184.415 125.542 181.91 124.546 179.079 124.974C180.726 124.726 178.843 124.937 178.293 125.122C177.455 125.401 176.699 125.794 176.069 126.425C174.862 127.63 174.322 129.509 174.77 131.163L174.711 131.511C174.069 131.477 173.377 131.546 172.897 131.721C171.741 132.142 171.013 132.755 170.285 133.627C169.87 133.494 169.441 133.402 168.987 133.402C166.881 133.402 165.093 134.966 164.719 136.977C164.302 136.594 163.834 136.265 163.391 136.026C161.989 135.271 160.438 135.037 158.889 135.431C157.199 135.861 155.789 137.589 155.857 139.366L155.802 139.433C155.215 140.261 155.254 141.422 155.459 142.354C155.686 143.393 156.573 144.307 157.449 144.859C158.465 145.501 159.802 145.747 160.986 145.627C162.354 145.491 163.997 145.145 164.957 144.051C165.547 143.378 166.026 142.706 166.239 141.817C166.294 141.586 166.311 141.37 166.331 141.153C167.073 141.735 167.989 142.101 168.987 142.101C169.667 142.101 170.305 141.923 170.883 141.635C171.114 141.802 171.358 141.945 171.617 142.065C172.03 142.751 172.818 143.469 173.635 143.601C174.809 143.794 175.771 144.005 176.973 143.765C178.742 143.411 179.858 141.698 180.438 140.13C180.659 139.533 180.731 138.937 180.695 138.362C181.53 138.359 182.355 138.255 183.051 138.099C184.337 137.811 185.583 136.919 186.43 135.79C187.162 136.57 188.189 137.069 189.321 137.069C191.493 137.069 193.305 135.257 193.305 133.085C193.305 130.913 191.493 129.101 189.321 129.101Z" fill="#F1AC56"/>
</g>
<defs>
<clipPath id="clip0_86_951">
<rect width="221.81" height="91.3497" fill="white" transform="translate(0.310059 77.6086)"/>
</clipPath>
</defs>
</svg>
